M48
; DRILL file {KiCad 7.0.6} date Sun Jul 23 13:51:40 2023
; FORMAT={-:-/ absolute / inch / decimal}
; #@! TF.CreationDate,2023-07-23T13:51:40-05:00
; #@! TF.GenerationSoftware,Kicad,Pcbnew,7.0.6
; #@! TF.FileFunction,Plated,1,4,PTH
FMAT,2
INCH
; #@! TA.AperFunction,Plated,PTH,ViaDrill
T1C0.0118
%
G90
G05
T1
X5.0646Y-1.4897
X5.2726Y-3.5404
X5.2726Y-3.7596
X5.2837Y-1.4897
X5.3767Y-2.2847
X5.4244Y-4.825
X5.45Y-4.825
X5.4742Y-1.6808
X5.4742Y-1.9
X5.4742Y-3.9851
X5.4742Y-4.2043
X5.5259Y-5.0406
X5.5266Y-5.015
X5.555Y-4.752
X5.555Y-4.7776
X5.57Y-4.91
X5.57Y-5.05
X5.57Y-5.076
X5.589Y-5.155
X5.5959Y-2.2847
X5.6083Y-5.4047
X5.6136Y-5.155
X5.6329Y-5.4047
X5.6883Y-5.221
X5.6886Y-5.401
X5.6888Y-1.4897
X5.6964Y-5.155
X5.6964Y-5.467
X5.71Y-5.21
X5.7103Y-5.412
X5.7239Y-5.155
X5.7239Y-5.467
X5.7317Y-5.221
X5.732Y-5.401
X5.745Y-3.81
X5.775Y-4.86
X5.775Y-4.96
X5.7863Y-2.4751
X5.7863Y-2.6943
X5.795Y-3.86
X5.8Y-4.6
X5.85Y-5.435
X5.86Y-4.88
X5.866Y-5.18
X5.866Y-5.2046
X5.869Y-4.739
X5.874Y-5.435
X5.8969Y-3.5404
X5.8969Y-3.7596
X5.908Y-1.4897
X5.9236Y-4.5634
X5.985Y-5.2761
X5.99Y-4.7438
X6.001Y-2.2847
X6.0233Y-4.7438
X6.055Y-4.7147
X6.09Y-5.4748
X6.0984Y-1.6808
X6.0984Y-1.9
X6.0984Y-3.9851
X6.0984Y-4.2043
X6.1295Y-5.11
X6.13Y-3.875
X6.17Y-5.4
X6.2Y-4.75
X6.22Y-3.875
X6.2201Y-2.2847
X6.232Y-4.933
X6.2577Y-4.8573
X6.2915Y-3.76
X6.3131Y-1.4897
X6.351Y-5.545
X6.3577Y-5.0325
X6.3632Y-3.875
X6.4106Y-2.4751
X6.4106Y-2.6943
X6.436Y-5.5442
X6.5211Y-3.76
X6.5323Y-1.4897
X6.55Y-5.15
X6.585Y-5.292
X6.5862Y-4.9868
X6.59Y-4.942
X6.59Y-5.365
X6.6827Y-5.1503
X6.7227Y-1.6808
X6.7227Y-1.9
X6.7227Y-3.9851
X6.7227Y-4.2043
T0
M30
