%TF.GenerationSoftware,KiCad,Pcbnew,7.0.6*%
%TF.CreationDate,2023-07-23T13:51:40-05:00*%
%TF.ProjectId,ssi2131_ref,73736932-3133-4315-9f72-65662e6b6963,rev?*%
%TF.SameCoordinates,Original*%
%TF.FileFunction,Copper,L4,Bot*%
%TF.FilePolarity,Positive*%
%FSLAX46Y46*%
G04 Gerber Fmt 4.6, Leading zero omitted, Abs format (unit mm)*
G04 Created by KiCad (PCBNEW 7.0.6) date 2023-07-23 13:51:40*
%MOMM*%
%LPD*%
G01*
G04 APERTURE LIST*
%TA.AperFunction,ViaPad*%
%ADD10C,0.450000*%
%TD*%
%TA.AperFunction,Conductor*%
%ADD11C,0.250000*%
%TD*%
%TA.AperFunction,Conductor*%
%ADD12C,0.254000*%
%TD*%
%TA.AperFunction,Conductor*%
%ADD13C,0.508000*%
%TD*%
%TA.AperFunction,Conductor*%
%ADD14C,1.016000*%
%TD*%
G04 APERTURE END LIST*
D10*
%TO.N,+12V*%
X141097000Y-121350303D03*
X141960600Y-130937000D03*
X142585103Y-130937000D03*
%TO.N,GND*%
X154900000Y-106789250D03*
X144490697Y-137185400D03*
X144689750Y-138861800D03*
X157991500Y-58032000D03*
X145585051Y-132613400D03*
X170756500Y-48260000D03*
X128640250Y-37839000D03*
X144687498Y-130937000D03*
X149780000Y-95493250D03*
X154900000Y-48260000D03*
X133923500Y-89926750D03*
X162828250Y-62868750D03*
X145388250Y-138861800D03*
X145034000Y-132334000D03*
X169740500Y-130817700D03*
X134206750Y-37839000D03*
X139043500Y-48260000D03*
X149072600Y-120370600D03*
X167259000Y-134416800D03*
X140358104Y-128030294D03*
X139043500Y-42693500D03*
X145592800Y-137185400D03*
X148844000Y-123952000D03*
X162828250Y-68435250D03*
X145385998Y-130937000D03*
X144496750Y-37839000D03*
X170756500Y-106789250D03*
X158945500Y-123375500D03*
X142135000Y-58032000D03*
X141478000Y-128930400D03*
X152019000Y-134012000D03*
X144482948Y-132613400D03*
X146971750Y-62868750D03*
X133923500Y-95493250D03*
X147320000Y-116840000D03*
X165919750Y-37839000D03*
X161316000Y-140843000D03*
X136568500Y-58032000D03*
X167386000Y-125526800D03*
X145041748Y-137464800D03*
X137780497Y-122555000D03*
X152425000Y-58032000D03*
X139043500Y-101222750D03*
X154900000Y-101222750D03*
X146971750Y-68435250D03*
X167290000Y-126664000D03*
X154900000Y-42693500D03*
X141097000Y-120700800D03*
X152991894Y-120492475D03*
X163475000Y-140823000D03*
X170756500Y-42693500D03*
X150063250Y-37839000D03*
X139043500Y-106789250D03*
X149780000Y-89926750D03*
X160353250Y-37839000D03*
X170756500Y-101222750D03*
X154686000Y-139060000D03*
%TO.N,+5V*%
X158292800Y-125298200D03*
X159803500Y-95504000D03*
X148996400Y-131572000D03*
X148996400Y-132196503D03*
%TO.N,-5V*%
X153797000Y-119754000D03*
X148590000Y-138049000D03*
X165636500Y-95504000D03*
X149199600Y-138049000D03*
X167386000Y-136271000D03*
%TO.N,-12V*%
X143076200Y-137278503D03*
X142451697Y-137278503D03*
X152146000Y-120492475D03*
%TO.N,VREF*%
X155690532Y-129794000D03*
X145923000Y-96774000D03*
X156718000Y-137160000D03*
X161485500Y-127825500D03*
X146685000Y-125984000D03*
X147193000Y-98044000D03*
X146685000Y-123444000D03*
%TO.N,PWM_CTRL*%
X150458650Y-115911150D03*
X157480000Y-120650000D03*
%TO.N,EXPO FREQ POT*%
X166370000Y-130810000D03*
X157988000Y-98425000D03*
X161624192Y-98425000D03*
X155702000Y-98425000D03*
%TO.N,SAW OUT*%
X138430000Y-122555000D03*
X140374580Y-127381000D03*
%TO.N,TRI OUT*%
X141478000Y-128270000D03*
X141478000Y-124714000D03*
%TD*%
D11*
%TO.N,VREF*%
X155690532Y-136132532D02*
X155690532Y-129794000D01*
X156718000Y-137160000D02*
X155690532Y-136132532D01*
D12*
%TO.N,+12V*%
X141097000Y-121350303D02*
X142519400Y-122772703D01*
D13*
X142585103Y-130937000D02*
X141960600Y-130937000D01*
D12*
X142519400Y-130871297D02*
X142585103Y-130937000D01*
X142519400Y-122772703D02*
X142519400Y-130871297D01*
D13*
%TO.N,+5V*%
X159803500Y-95504000D02*
X159803500Y-123787500D01*
X159803500Y-123787500D02*
X151714200Y-131876800D01*
X151714200Y-131876800D02*
X149301200Y-131876800D01*
D14*
X148996400Y-131572000D02*
X148996400Y-132196503D01*
D12*
%TO.N,-5V*%
X147447000Y-131826000D02*
X147447000Y-136779000D01*
D13*
X168529000Y-135128000D02*
X168529000Y-98396500D01*
D12*
X153797000Y-125476000D02*
X147447000Y-131826000D01*
D13*
X149199600Y-138049000D02*
X165608000Y-138049000D01*
D12*
X148717000Y-138049000D02*
X148590000Y-138049000D01*
D13*
X165608000Y-138049000D02*
X168529000Y-135128000D01*
D12*
X153797000Y-119888000D02*
X153797000Y-125476000D01*
X147447000Y-136779000D02*
X148590000Y-137922000D01*
D13*
X148717000Y-138049000D02*
X149199600Y-138049000D01*
X168529000Y-98396500D02*
X165636500Y-95504000D01*
%TO.N,-12V*%
X142959697Y-137278503D02*
X143076200Y-137278503D01*
D12*
X146214500Y-133693500D02*
X142629497Y-137278503D01*
X146214500Y-131407500D02*
X146214500Y-133693500D01*
D13*
X143076200Y-137278503D02*
X142451697Y-137278503D01*
D12*
X152146000Y-120446800D02*
X152146000Y-125476000D01*
X152146000Y-125476000D02*
X146214500Y-131407500D01*
D11*
%TO.N,VREF*%
X157659032Y-127825500D02*
X161485500Y-127825500D01*
D12*
X147193000Y-98044000D02*
X145923000Y-96774000D01*
D11*
X155690532Y-129794000D02*
X157659032Y-127825500D01*
D12*
X146685000Y-125984000D02*
X146685000Y-123444000D01*
%TO.N,PWM_CTRL*%
X152741150Y-115911150D02*
X157480000Y-120650000D01*
X150458650Y-115911150D02*
X152741150Y-115911150D01*
%TO.N,EXPO FREQ POT*%
X166370000Y-130810000D02*
X166370000Y-102108000D01*
X166370000Y-102108000D02*
X162687000Y-98425000D01*
X157988000Y-98425000D02*
X155702000Y-98425000D01*
X162687000Y-98425000D02*
X161624192Y-98425000D01*
%TO.N,SAW OUT*%
X140374580Y-127381000D02*
X138430000Y-125436420D01*
X138430000Y-125436420D02*
X138430000Y-122555000D01*
%TO.N,TRI OUT*%
X141478000Y-124714000D02*
X141478000Y-128270000D01*
%TD*%
M02*
