%TF.GenerationSoftware,KiCad,Pcbnew,7.0.6*%
%TF.CreationDate,2023-07-23T13:51:40-05:00*%
%TF.ProjectId,ssi2131_ref,73736932-3133-4315-9f72-65662e6b6963,rev?*%
%TF.SameCoordinates,Original*%
%TF.FileFunction,Copper,L2,Inr*%
%TF.FilePolarity,Positive*%
%FSLAX46Y46*%
G04 Gerber Fmt 4.6, Leading zero omitted, Abs format (unit mm)*
G04 Created by KiCad (PCBNEW 7.0.6) date 2023-07-23 13:51:40*
%MOMM*%
%LPD*%
G01*
G04 APERTURE LIST*
%TA.AperFunction,ViaPad*%
%ADD10C,0.450000*%
%TD*%
G04 APERTURE END LIST*
D10*
%TO.N,+12V*%
X141097000Y-121350303D03*
X141960600Y-130937000D03*
X142585103Y-130937000D03*
%TO.N,GND*%
X154900000Y-106789250D03*
X144490697Y-137185400D03*
X144689750Y-138861800D03*
X157991500Y-58032000D03*
X145585051Y-132613400D03*
X170756500Y-48260000D03*
X128640250Y-37839000D03*
X144687498Y-130937000D03*
X149780000Y-95493250D03*
X154900000Y-48260000D03*
X133923500Y-89926750D03*
X162828250Y-62868750D03*
X145388250Y-138861800D03*
X145034000Y-132334000D03*
X169740500Y-130817700D03*
X134206750Y-37839000D03*
X139043500Y-48260000D03*
X149072600Y-120370600D03*
X167259000Y-134416800D03*
X140358104Y-128030294D03*
X139043500Y-42693500D03*
X145592800Y-137185400D03*
X148844000Y-123952000D03*
X162828250Y-68435250D03*
X145385998Y-130937000D03*
X144496750Y-37839000D03*
X170756500Y-106789250D03*
X158945500Y-123375500D03*
X142135000Y-58032000D03*
X141478000Y-128930400D03*
X152019000Y-134012000D03*
X144482948Y-132613400D03*
X146971750Y-62868750D03*
X133923500Y-95493250D03*
X147320000Y-116840000D03*
X165919750Y-37839000D03*
X161316000Y-140843000D03*
X136568500Y-58032000D03*
X167386000Y-125526800D03*
X145041748Y-137464800D03*
X137780497Y-122555000D03*
X152425000Y-58032000D03*
X139043500Y-101222750D03*
X154900000Y-101222750D03*
X146971750Y-68435250D03*
X167290000Y-126664000D03*
X154900000Y-42693500D03*
X141097000Y-120700800D03*
X152991894Y-120492475D03*
X163475000Y-140823000D03*
X170756500Y-42693500D03*
X150063250Y-37839000D03*
X139043500Y-106789250D03*
X149780000Y-89926750D03*
X160353250Y-37839000D03*
X170756500Y-101222750D03*
X154686000Y-139060000D03*
%TO.N,+5V*%
X158292800Y-125298200D03*
X159803500Y-95504000D03*
X148996400Y-131572000D03*
X148996400Y-132196503D03*
%TO.N,-5V*%
X153797000Y-119754000D03*
X148590000Y-138049000D03*
X165636500Y-95504000D03*
X149199600Y-138049000D03*
X167386000Y-136271000D03*
%TO.N,-12V*%
X143076200Y-137278503D03*
X142451697Y-137278503D03*
X152146000Y-120492475D03*
%TO.N,VREF*%
X155690532Y-129794000D03*
X145923000Y-96774000D03*
X156718000Y-137160000D03*
X161485500Y-127825500D03*
X146685000Y-125984000D03*
X147193000Y-98044000D03*
X146685000Y-123444000D03*
%TO.N,PWM_CTRL*%
X150458650Y-115911150D03*
X157480000Y-120650000D03*
%TO.N,EXPO FREQ POT*%
X166370000Y-130810000D03*
X157988000Y-98425000D03*
X161624192Y-98425000D03*
X155702000Y-98425000D03*
%TO.N,SAW OUT*%
X138430000Y-122555000D03*
X140374580Y-127381000D03*
%TO.N,TRI OUT*%
X141478000Y-128270000D03*
X141478000Y-124714000D03*
%TD*%
%TA.AperFunction,Conductor*%
%TO.N,GND*%
G36*
X128351578Y-27958907D02*
G01*
X128387542Y-28008407D01*
X128387542Y-28069593D01*
X128353893Y-28117358D01*
X128141826Y-28281108D01*
X127953814Y-28476119D01*
X127796199Y-28696422D01*
X127672342Y-28937328D01*
X127584884Y-29193687D01*
X127584881Y-29193698D01*
X127535680Y-29460069D01*
X127525788Y-29730765D01*
X127555414Y-30000020D01*
X127589997Y-30132301D01*
X127623928Y-30262088D01*
X127729870Y-30511390D01*
X127801999Y-30629577D01*
X127870983Y-30742612D01*
X127960252Y-30849880D01*
X128044255Y-30950820D01*
X128245998Y-31131582D01*
X128468624Y-31278870D01*
X128471913Y-31281046D01*
X128604100Y-31343012D01*
X128717176Y-31396020D01*
X128862628Y-31439780D01*
X128976555Y-31474056D01*
X128976559Y-31474057D01*
X128976569Y-31474060D01*
X129143840Y-31498677D01*
X129244560Y-31513500D01*
X129244561Y-31513500D01*
X129447633Y-31513500D01*
X129505495Y-31509264D01*
X129650156Y-31498677D01*
X129914553Y-31439780D01*
X130167558Y-31343014D01*
X130403777Y-31210441D01*
X130618177Y-31044888D01*
X130806186Y-30849881D01*
X130963799Y-30629579D01*
X131087656Y-30388675D01*
X131175118Y-30132305D01*
X131224319Y-29865933D01*
X131234212Y-29595235D01*
X131204586Y-29325982D01*
X131136072Y-29063912D01*
X131030130Y-28814610D01*
X130889018Y-28583390D01*
X130715745Y-28375180D01*
X130610754Y-28281108D01*
X130514007Y-28194422D01*
X130514004Y-28194420D01*
X130514002Y-28194418D01*
X130403883Y-28121564D01*
X130365786Y-28073689D01*
X130363105Y-28012563D01*
X130396865Y-27961534D01*
X130454172Y-27940095D01*
X130458510Y-27940000D01*
X164093387Y-27940000D01*
X164151578Y-27958907D01*
X164187542Y-28008407D01*
X164187542Y-28069593D01*
X164153893Y-28117358D01*
X163941826Y-28281108D01*
X163753814Y-28476119D01*
X163596199Y-28696422D01*
X163472342Y-28937328D01*
X163384884Y-29193687D01*
X163384881Y-29193698D01*
X163335680Y-29460069D01*
X163325788Y-29730765D01*
X163355414Y-30000020D01*
X163389997Y-30132301D01*
X163423928Y-30262088D01*
X163529870Y-30511390D01*
X163601999Y-30629577D01*
X163670983Y-30742612D01*
X163760252Y-30849880D01*
X163844255Y-30950820D01*
X164045998Y-31131582D01*
X164268624Y-31278870D01*
X164271913Y-31281046D01*
X164404100Y-31343012D01*
X164517176Y-31396020D01*
X164662628Y-31439780D01*
X164776555Y-31474056D01*
X164776559Y-31474057D01*
X164776569Y-31474060D01*
X164943840Y-31498677D01*
X165044560Y-31513500D01*
X165044561Y-31513500D01*
X165247633Y-31513500D01*
X165305495Y-31509264D01*
X165450156Y-31498677D01*
X165714553Y-31439780D01*
X165967558Y-31343014D01*
X166203777Y-31210441D01*
X166418177Y-31044888D01*
X166606186Y-30849881D01*
X166763799Y-30629579D01*
X166887656Y-30388675D01*
X166975118Y-30132305D01*
X167024319Y-29865933D01*
X167034212Y-29595235D01*
X167004586Y-29325982D01*
X166936072Y-29063912D01*
X166830130Y-28814610D01*
X166689018Y-28583390D01*
X166515745Y-28375180D01*
X166410754Y-28281108D01*
X166314007Y-28194422D01*
X166314004Y-28194420D01*
X166314002Y-28194418D01*
X166203883Y-28121564D01*
X166165786Y-28073689D01*
X166163105Y-28012563D01*
X166196865Y-27961534D01*
X166254172Y-27940095D01*
X166258510Y-27940000D01*
X171351000Y-27940000D01*
X171409191Y-27958907D01*
X171445155Y-28008407D01*
X171450000Y-28039000D01*
X171450000Y-153825000D01*
X171431093Y-153883191D01*
X171381593Y-153919155D01*
X171351000Y-153924000D01*
X166201936Y-153924000D01*
X166143745Y-153905093D01*
X166107781Y-153855593D01*
X166107781Y-153794407D01*
X166143745Y-153744907D01*
X166153484Y-153738667D01*
X166162813Y-153733430D01*
X166203777Y-153710441D01*
X166418177Y-153544888D01*
X166606186Y-153349881D01*
X166763799Y-153129579D01*
X166887656Y-152888675D01*
X166975118Y-152632305D01*
X167024319Y-152365933D01*
X167034212Y-152095235D01*
X167004586Y-151825982D01*
X166936072Y-151563912D01*
X166830130Y-151314610D01*
X166689018Y-151083390D01*
X166515745Y-150875180D01*
X166410754Y-150781108D01*
X166314007Y-150694422D01*
X166314004Y-150694420D01*
X166314002Y-150694418D01*
X166164489Y-150595501D01*
X166088086Y-150544953D01*
X165842822Y-150429979D01*
X165583444Y-150351943D01*
X165583428Y-150351939D01*
X165315440Y-150312500D01*
X165315439Y-150312500D01*
X165112369Y-150312500D01*
X165112367Y-150312500D01*
X164909848Y-150327322D01*
X164645450Y-150386219D01*
X164392439Y-150482987D01*
X164156219Y-150615561D01*
X163941826Y-150781108D01*
X163753814Y-150976119D01*
X163596199Y-151196422D01*
X163472342Y-151437328D01*
X163384884Y-151693687D01*
X163384881Y-151693698D01*
X163335680Y-151960069D01*
X163325788Y-152230765D01*
X163355414Y-152500020D01*
X163389997Y-152632301D01*
X163423928Y-152762088D01*
X163529870Y-153011390D01*
X163601999Y-153129577D01*
X163670983Y-153242612D01*
X163760252Y-153349880D01*
X163844255Y-153450820D01*
X164045998Y-153631582D01*
X164207857Y-153738667D01*
X164213551Y-153742434D01*
X164251650Y-153790311D01*
X164254331Y-153851438D01*
X164220570Y-153902466D01*
X164163264Y-153923905D01*
X164158926Y-153924000D01*
X130401936Y-153924000D01*
X130343745Y-153905093D01*
X130307781Y-153855593D01*
X130307781Y-153794407D01*
X130343745Y-153744907D01*
X130353484Y-153738667D01*
X130362813Y-153733430D01*
X130403777Y-153710441D01*
X130618177Y-153544888D01*
X130806186Y-153349881D01*
X130963799Y-153129579D01*
X131087656Y-152888675D01*
X131175118Y-152632305D01*
X131224319Y-152365933D01*
X131234212Y-152095235D01*
X131204586Y-151825982D01*
X131136072Y-151563912D01*
X131030130Y-151314610D01*
X130889018Y-151083390D01*
X130715745Y-150875180D01*
X130610754Y-150781108D01*
X130514007Y-150694422D01*
X130514004Y-150694420D01*
X130514002Y-150694418D01*
X130364489Y-150595501D01*
X130288086Y-150544953D01*
X130042822Y-150429979D01*
X129783444Y-150351943D01*
X129783428Y-150351939D01*
X129515440Y-150312500D01*
X129515439Y-150312500D01*
X129312369Y-150312500D01*
X129312367Y-150312500D01*
X129109848Y-150327322D01*
X128845450Y-150386219D01*
X128592439Y-150482987D01*
X128356219Y-150615561D01*
X128141826Y-150781108D01*
X127953814Y-150976119D01*
X127796199Y-151196422D01*
X127672342Y-151437328D01*
X127584884Y-151693687D01*
X127584881Y-151693698D01*
X127535680Y-151960069D01*
X127525788Y-152230765D01*
X127555414Y-152500020D01*
X127589997Y-152632301D01*
X127623928Y-152762088D01*
X127729870Y-153011390D01*
X127801999Y-153129577D01*
X127870983Y-153242612D01*
X127960252Y-153349880D01*
X128044255Y-153450820D01*
X128245998Y-153631582D01*
X128407857Y-153738667D01*
X128413551Y-153742434D01*
X128451650Y-153790311D01*
X128454331Y-153851438D01*
X128420570Y-153902466D01*
X128363264Y-153923905D01*
X128358926Y-153924000D01*
X123289000Y-153924000D01*
X123230809Y-153905093D01*
X123194845Y-153855593D01*
X123190000Y-153825000D01*
X123190000Y-138049002D01*
X148150022Y-138049002D01*
X148167842Y-138172951D01*
X148167843Y-138172953D01*
X148167843Y-138172954D01*
X148167844Y-138172956D01*
X148219867Y-138286870D01*
X148219868Y-138286871D01*
X148301875Y-138381512D01*
X148301875Y-138381513D01*
X148407225Y-138449217D01*
X148407227Y-138449218D01*
X148527385Y-138484500D01*
X148527386Y-138484500D01*
X148652614Y-138484500D01*
X148652615Y-138484500D01*
X148772773Y-138449218D01*
X148841278Y-138405192D01*
X148900451Y-138389638D01*
X148948321Y-138405192D01*
X149016827Y-138449218D01*
X149136985Y-138484500D01*
X149136986Y-138484500D01*
X149262214Y-138484500D01*
X149262215Y-138484500D01*
X149382373Y-138449218D01*
X149487724Y-138381513D01*
X149569733Y-138286870D01*
X149621756Y-138172956D01*
X149639578Y-138049000D01*
X149621756Y-137925044D01*
X149569733Y-137811130D01*
X149487724Y-137716487D01*
X149487724Y-137716486D01*
X149382374Y-137648782D01*
X149262216Y-137613500D01*
X149262215Y-137613500D01*
X149136985Y-137613500D01*
X149136983Y-137613500D01*
X149016825Y-137648782D01*
X148948323Y-137692806D01*
X148889148Y-137708361D01*
X148841277Y-137692806D01*
X148772774Y-137648782D01*
X148652616Y-137613500D01*
X148652615Y-137613500D01*
X148527385Y-137613500D01*
X148527383Y-137613500D01*
X148407225Y-137648782D01*
X148301875Y-137716486D01*
X148301875Y-137716487D01*
X148219868Y-137811128D01*
X148167843Y-137925046D01*
X148167842Y-137925048D01*
X148150022Y-138048997D01*
X148150022Y-138049002D01*
X123190000Y-138049002D01*
X123190000Y-137278505D01*
X142011719Y-137278505D01*
X142029539Y-137402454D01*
X142029540Y-137402456D01*
X142029540Y-137402457D01*
X142029541Y-137402459D01*
X142081564Y-137516373D01*
X142081565Y-137516374D01*
X142163572Y-137611015D01*
X142163572Y-137611016D01*
X142268922Y-137678720D01*
X142268924Y-137678721D01*
X142389082Y-137714003D01*
X142389083Y-137714003D01*
X142514311Y-137714003D01*
X142514312Y-137714003D01*
X142634470Y-137678721D01*
X142710427Y-137629906D01*
X142769599Y-137614352D01*
X142817469Y-137629906D01*
X142893427Y-137678721D01*
X143013585Y-137714003D01*
X143013586Y-137714003D01*
X143138814Y-137714003D01*
X143138815Y-137714003D01*
X143258973Y-137678721D01*
X143364324Y-137611016D01*
X143446333Y-137516373D01*
X143498356Y-137402459D01*
X143515394Y-137283956D01*
X143516178Y-137278505D01*
X143516178Y-137278500D01*
X143499141Y-137160002D01*
X156278022Y-137160002D01*
X156295842Y-137283951D01*
X156295843Y-137283953D01*
X156295843Y-137283954D01*
X156295844Y-137283956D01*
X156347867Y-137397870D01*
X156388871Y-137445191D01*
X156429875Y-137492512D01*
X156429875Y-137492513D01*
X156467004Y-137516374D01*
X156535227Y-137560218D01*
X156655385Y-137595500D01*
X156655386Y-137595500D01*
X156780614Y-137595500D01*
X156780615Y-137595500D01*
X156900773Y-137560218D01*
X157006124Y-137492513D01*
X157088133Y-137397870D01*
X157140156Y-137283956D01*
X157140940Y-137278503D01*
X157157978Y-137160002D01*
X157157978Y-137159997D01*
X157140157Y-137036048D01*
X157140156Y-137036046D01*
X157140156Y-137036044D01*
X157088133Y-136922130D01*
X157006124Y-136827487D01*
X157006124Y-136827486D01*
X156900774Y-136759782D01*
X156780616Y-136724500D01*
X156780615Y-136724500D01*
X156655385Y-136724500D01*
X156655383Y-136724500D01*
X156535225Y-136759782D01*
X156429875Y-136827486D01*
X156429875Y-136827487D01*
X156347868Y-136922128D01*
X156347867Y-136922129D01*
X156347867Y-136922130D01*
X156324254Y-136973834D01*
X156295843Y-137036046D01*
X156295842Y-137036048D01*
X156278022Y-137159997D01*
X156278022Y-137160002D01*
X143499141Y-137160002D01*
X143498357Y-137154551D01*
X143498356Y-137154549D01*
X143498356Y-137154547D01*
X143446333Y-137040633D01*
X143364324Y-136945990D01*
X143364324Y-136945989D01*
X143258974Y-136878285D01*
X143138816Y-136843003D01*
X143138815Y-136843003D01*
X143013585Y-136843003D01*
X143013583Y-136843003D01*
X142893425Y-136878285D01*
X142817471Y-136927098D01*
X142758296Y-136942653D01*
X142710425Y-136927098D01*
X142634471Y-136878285D01*
X142514313Y-136843003D01*
X142514312Y-136843003D01*
X142389082Y-136843003D01*
X142389080Y-136843003D01*
X142268922Y-136878285D01*
X142163572Y-136945989D01*
X142163572Y-136945990D01*
X142081565Y-137040631D01*
X142029540Y-137154549D01*
X142029539Y-137154551D01*
X142011719Y-137278500D01*
X142011719Y-137278505D01*
X123190000Y-137278505D01*
X123190000Y-136271002D01*
X166946022Y-136271002D01*
X166963842Y-136394951D01*
X166963843Y-136394953D01*
X166963843Y-136394954D01*
X166963844Y-136394956D01*
X167015867Y-136508870D01*
X167015868Y-136508871D01*
X167097875Y-136603512D01*
X167097875Y-136603513D01*
X167203225Y-136671217D01*
X167203227Y-136671218D01*
X167323385Y-136706500D01*
X167323386Y-136706500D01*
X167448614Y-136706500D01*
X167448615Y-136706500D01*
X167568773Y-136671218D01*
X167674124Y-136603513D01*
X167756133Y-136508870D01*
X167808156Y-136394956D01*
X167825978Y-136271000D01*
X167808156Y-136147044D01*
X167756133Y-136033130D01*
X167674124Y-135938487D01*
X167674124Y-135938486D01*
X167568774Y-135870782D01*
X167448616Y-135835500D01*
X167448615Y-135835500D01*
X167323385Y-135835500D01*
X167323383Y-135835500D01*
X167203225Y-135870782D01*
X167097875Y-135938486D01*
X167097875Y-135938487D01*
X167015868Y-136033128D01*
X166963843Y-136147046D01*
X166963842Y-136147048D01*
X166946022Y-136270997D01*
X166946022Y-136271002D01*
X123190000Y-136271002D01*
X123190000Y-132196505D01*
X148556422Y-132196505D01*
X148574242Y-132320454D01*
X148574243Y-132320456D01*
X148574243Y-132320457D01*
X148574244Y-132320459D01*
X148626267Y-132434373D01*
X148626268Y-132434374D01*
X148708275Y-132529015D01*
X148708275Y-132529016D01*
X148813625Y-132596720D01*
X148813627Y-132596721D01*
X148933785Y-132632003D01*
X148933786Y-132632003D01*
X149059014Y-132632003D01*
X149059015Y-132632003D01*
X149179173Y-132596721D01*
X149284524Y-132529016D01*
X149366533Y-132434373D01*
X149418556Y-132320459D01*
X149436378Y-132196503D01*
X149418556Y-132072547D01*
X149366533Y-131958633D01*
X149366531Y-131958631D01*
X149366531Y-131958630D01*
X149358258Y-131949083D01*
X149334439Y-131892724D01*
X149348297Y-131833129D01*
X149358257Y-131819420D01*
X149366533Y-131809870D01*
X149418556Y-131695956D01*
X149436378Y-131572000D01*
X149418556Y-131448044D01*
X149366533Y-131334130D01*
X149284524Y-131239487D01*
X149284524Y-131239486D01*
X149179174Y-131171782D01*
X149059016Y-131136500D01*
X149059015Y-131136500D01*
X148933785Y-131136500D01*
X148933783Y-131136500D01*
X148813625Y-131171782D01*
X148708275Y-131239486D01*
X148708275Y-131239487D01*
X148626268Y-131334128D01*
X148574243Y-131448046D01*
X148574242Y-131448048D01*
X148556422Y-131571997D01*
X148556422Y-131572002D01*
X148574242Y-131695951D01*
X148574243Y-131695953D01*
X148574243Y-131695954D01*
X148574244Y-131695956D01*
X148626267Y-131809870D01*
X148634542Y-131819420D01*
X148658360Y-131875778D01*
X148644502Y-131935374D01*
X148634544Y-131949080D01*
X148626268Y-131958631D01*
X148574243Y-132072549D01*
X148574242Y-132072551D01*
X148556422Y-132196500D01*
X148556422Y-132196505D01*
X123190000Y-132196505D01*
X123190000Y-130937002D01*
X141520622Y-130937002D01*
X141538442Y-131060951D01*
X141538443Y-131060953D01*
X141538443Y-131060954D01*
X141538444Y-131060956D01*
X141590467Y-131174870D01*
X141621096Y-131210218D01*
X141672475Y-131269512D01*
X141672475Y-131269513D01*
X141773022Y-131334130D01*
X141777827Y-131337218D01*
X141897985Y-131372500D01*
X141897986Y-131372500D01*
X142023214Y-131372500D01*
X142023215Y-131372500D01*
X142143373Y-131337218D01*
X142219330Y-131288403D01*
X142278502Y-131272849D01*
X142326372Y-131288403D01*
X142402330Y-131337218D01*
X142522488Y-131372500D01*
X142522489Y-131372500D01*
X142647717Y-131372500D01*
X142647718Y-131372500D01*
X142767876Y-131337218D01*
X142873227Y-131269513D01*
X142955236Y-131174870D01*
X143007259Y-131060956D01*
X143007260Y-131060951D01*
X143025081Y-130937002D01*
X143025081Y-130936997D01*
X143007260Y-130813048D01*
X143007259Y-130813046D01*
X143007259Y-130813044D01*
X143005870Y-130810002D01*
X165930022Y-130810002D01*
X165947842Y-130933951D01*
X165947843Y-130933953D01*
X165947843Y-130933954D01*
X165947844Y-130933956D01*
X165999867Y-131047870D01*
X165999868Y-131047871D01*
X166081875Y-131142512D01*
X166081875Y-131142513D01*
X166187225Y-131210217D01*
X166187227Y-131210218D01*
X166307385Y-131245500D01*
X166307386Y-131245500D01*
X166432614Y-131245500D01*
X166432615Y-131245500D01*
X166552773Y-131210218D01*
X166658124Y-131142513D01*
X166740133Y-131047870D01*
X166792156Y-130933956D01*
X166809540Y-130813046D01*
X166809978Y-130810002D01*
X166809978Y-130809997D01*
X166792157Y-130686048D01*
X166792156Y-130686046D01*
X166792156Y-130686044D01*
X166740133Y-130572130D01*
X166658124Y-130477487D01*
X166658124Y-130477486D01*
X166552774Y-130409782D01*
X166432616Y-130374500D01*
X166432615Y-130374500D01*
X166307385Y-130374500D01*
X166307383Y-130374500D01*
X166187225Y-130409782D01*
X166081875Y-130477486D01*
X166081875Y-130477487D01*
X165999868Y-130572128D01*
X165947843Y-130686046D01*
X165947842Y-130686048D01*
X165930022Y-130809997D01*
X165930022Y-130810002D01*
X143005870Y-130810002D01*
X142955236Y-130699130D01*
X142873227Y-130604487D01*
X142873227Y-130604486D01*
X142767877Y-130536782D01*
X142647719Y-130501500D01*
X142647718Y-130501500D01*
X142522488Y-130501500D01*
X142522486Y-130501500D01*
X142402328Y-130536782D01*
X142326374Y-130585595D01*
X142267199Y-130601150D01*
X142219328Y-130585595D01*
X142143374Y-130536782D01*
X142023216Y-130501500D01*
X142023215Y-130501500D01*
X141897985Y-130501500D01*
X141897983Y-130501500D01*
X141777825Y-130536782D01*
X141672475Y-130604486D01*
X141672475Y-130604487D01*
X141590468Y-130699128D01*
X141538443Y-130813046D01*
X141538442Y-130813048D01*
X141520622Y-130936997D01*
X141520622Y-130937002D01*
X123190000Y-130937002D01*
X123190000Y-129794002D01*
X155250554Y-129794002D01*
X155268374Y-129917951D01*
X155268375Y-129917953D01*
X155268375Y-129917954D01*
X155268376Y-129917956D01*
X155320399Y-130031870D01*
X155320400Y-130031871D01*
X155402407Y-130126512D01*
X155402407Y-130126513D01*
X155507757Y-130194217D01*
X155507759Y-130194218D01*
X155627917Y-130229500D01*
X155627918Y-130229500D01*
X155753146Y-130229500D01*
X155753147Y-130229500D01*
X155873305Y-130194218D01*
X155978656Y-130126513D01*
X156060665Y-130031870D01*
X156112688Y-129917956D01*
X156130510Y-129794000D01*
X156112688Y-129670044D01*
X156060665Y-129556130D01*
X155978656Y-129461487D01*
X155978656Y-129461486D01*
X155873306Y-129393782D01*
X155753148Y-129358500D01*
X155753147Y-129358500D01*
X155627917Y-129358500D01*
X155627915Y-129358500D01*
X155507757Y-129393782D01*
X155402407Y-129461486D01*
X155402407Y-129461487D01*
X155320400Y-129556128D01*
X155268375Y-129670046D01*
X155268374Y-129670048D01*
X155250554Y-129793997D01*
X155250554Y-129794002D01*
X123190000Y-129794002D01*
X123190000Y-128270002D01*
X141038022Y-128270002D01*
X141055842Y-128393951D01*
X141055843Y-128393953D01*
X141055843Y-128393954D01*
X141055844Y-128393956D01*
X141107867Y-128507870D01*
X141107868Y-128507871D01*
X141189875Y-128602512D01*
X141189875Y-128602513D01*
X141295225Y-128670217D01*
X141295227Y-128670218D01*
X141415385Y-128705500D01*
X141415386Y-128705500D01*
X141540614Y-128705500D01*
X141540615Y-128705500D01*
X141660773Y-128670218D01*
X141766124Y-128602513D01*
X141848133Y-128507870D01*
X141900156Y-128393956D01*
X141917978Y-128270000D01*
X141911611Y-128225718D01*
X141900157Y-128146048D01*
X141900156Y-128146046D01*
X141900156Y-128146044D01*
X141848133Y-128032130D01*
X141766124Y-127937487D01*
X141766124Y-127937486D01*
X141660774Y-127869782D01*
X141540616Y-127834500D01*
X141540615Y-127834500D01*
X141415385Y-127834500D01*
X141415383Y-127834500D01*
X141295225Y-127869782D01*
X141189875Y-127937486D01*
X141189875Y-127937487D01*
X141107868Y-128032128D01*
X141055843Y-128146046D01*
X141055842Y-128146048D01*
X141038022Y-128269997D01*
X141038022Y-128270002D01*
X123190000Y-128270002D01*
X123190000Y-127825502D01*
X161045522Y-127825502D01*
X161063342Y-127949451D01*
X161063343Y-127949453D01*
X161063343Y-127949454D01*
X161063344Y-127949456D01*
X161115367Y-128063370D01*
X161115368Y-128063371D01*
X161197375Y-128158012D01*
X161197375Y-128158013D01*
X161302725Y-128225717D01*
X161302727Y-128225718D01*
X161422885Y-128261000D01*
X161422886Y-128261000D01*
X161548114Y-128261000D01*
X161548115Y-128261000D01*
X161668273Y-128225718D01*
X161773624Y-128158013D01*
X161855633Y-128063370D01*
X161907656Y-127949456D01*
X161909377Y-127937486D01*
X161925478Y-127825502D01*
X161925478Y-127825497D01*
X161907657Y-127701548D01*
X161907656Y-127701546D01*
X161907656Y-127701544D01*
X161855633Y-127587630D01*
X161773624Y-127492987D01*
X161773624Y-127492986D01*
X161668274Y-127425282D01*
X161548116Y-127390000D01*
X161548115Y-127390000D01*
X161422885Y-127390000D01*
X161422883Y-127390000D01*
X161302725Y-127425282D01*
X161197375Y-127492986D01*
X161197375Y-127492987D01*
X161115368Y-127587628D01*
X161063343Y-127701546D01*
X161063342Y-127701548D01*
X161045522Y-127825497D01*
X161045522Y-127825502D01*
X123190000Y-127825502D01*
X123190000Y-127381002D01*
X139934602Y-127381002D01*
X139952422Y-127504951D01*
X139952423Y-127504953D01*
X139952423Y-127504954D01*
X139952424Y-127504956D01*
X140004447Y-127618870D01*
X140004448Y-127618871D01*
X140086455Y-127713512D01*
X140086455Y-127713513D01*
X140191805Y-127781217D01*
X140191807Y-127781218D01*
X140311965Y-127816500D01*
X140311966Y-127816500D01*
X140437194Y-127816500D01*
X140437195Y-127816500D01*
X140557353Y-127781218D01*
X140662704Y-127713513D01*
X140744713Y-127618870D01*
X140796736Y-127504956D01*
X140798457Y-127492986D01*
X140814558Y-127381002D01*
X140814558Y-127380997D01*
X140796737Y-127257048D01*
X140796736Y-127257046D01*
X140796736Y-127257044D01*
X140744713Y-127143130D01*
X140662704Y-127048487D01*
X140662704Y-127048486D01*
X140557354Y-126980782D01*
X140437196Y-126945500D01*
X140437195Y-126945500D01*
X140311965Y-126945500D01*
X140311963Y-126945500D01*
X140191805Y-126980782D01*
X140086455Y-127048486D01*
X140086455Y-127048487D01*
X140004448Y-127143128D01*
X139952423Y-127257046D01*
X139952422Y-127257048D01*
X139934602Y-127380997D01*
X139934602Y-127381002D01*
X123190000Y-127381002D01*
X123190000Y-125984002D01*
X146245022Y-125984002D01*
X146262842Y-126107951D01*
X146262843Y-126107953D01*
X146262843Y-126107954D01*
X146262844Y-126107956D01*
X146314867Y-126221870D01*
X146314868Y-126221871D01*
X146396875Y-126316512D01*
X146396875Y-126316513D01*
X146502225Y-126384217D01*
X146502227Y-126384218D01*
X146622385Y-126419500D01*
X146622386Y-126419500D01*
X146747614Y-126419500D01*
X146747615Y-126419500D01*
X146867773Y-126384218D01*
X146973124Y-126316513D01*
X147055133Y-126221870D01*
X147107156Y-126107956D01*
X147124978Y-125984000D01*
X147107156Y-125860044D01*
X147055133Y-125746130D01*
X146973124Y-125651487D01*
X146973124Y-125651486D01*
X146867774Y-125583782D01*
X146747616Y-125548500D01*
X146747615Y-125548500D01*
X146622385Y-125548500D01*
X146622383Y-125548500D01*
X146502225Y-125583782D01*
X146396875Y-125651486D01*
X146396875Y-125651487D01*
X146314868Y-125746128D01*
X146262843Y-125860046D01*
X146262842Y-125860048D01*
X146245022Y-125983997D01*
X146245022Y-125984002D01*
X123190000Y-125984002D01*
X123190000Y-125298202D01*
X157852822Y-125298202D01*
X157870642Y-125422151D01*
X157870643Y-125422153D01*
X157870643Y-125422154D01*
X157870644Y-125422156D01*
X157922667Y-125536070D01*
X157922668Y-125536071D01*
X158004675Y-125630712D01*
X158004675Y-125630713D01*
X158110025Y-125698417D01*
X158110027Y-125698418D01*
X158230185Y-125733700D01*
X158230186Y-125733700D01*
X158355414Y-125733700D01*
X158355415Y-125733700D01*
X158475573Y-125698418D01*
X158580924Y-125630713D01*
X158662933Y-125536070D01*
X158714956Y-125422156D01*
X158732778Y-125298200D01*
X158714956Y-125174244D01*
X158662933Y-125060330D01*
X158580924Y-124965687D01*
X158580924Y-124965686D01*
X158475574Y-124897982D01*
X158355416Y-124862700D01*
X158355415Y-124862700D01*
X158230185Y-124862700D01*
X158230183Y-124862700D01*
X158110025Y-124897982D01*
X158004675Y-124965686D01*
X158004675Y-124965687D01*
X157922668Y-125060328D01*
X157870643Y-125174246D01*
X157870642Y-125174248D01*
X157852822Y-125298197D01*
X157852822Y-125298202D01*
X123190000Y-125298202D01*
X123190000Y-124714002D01*
X141038022Y-124714002D01*
X141055842Y-124837951D01*
X141055843Y-124837953D01*
X141055843Y-124837954D01*
X141055844Y-124837956D01*
X141107867Y-124951870D01*
X141107868Y-124951871D01*
X141189875Y-125046512D01*
X141189875Y-125046513D01*
X141295225Y-125114217D01*
X141295227Y-125114218D01*
X141415385Y-125149500D01*
X141415386Y-125149500D01*
X141540614Y-125149500D01*
X141540615Y-125149500D01*
X141660773Y-125114218D01*
X141766124Y-125046513D01*
X141848133Y-124951870D01*
X141900156Y-124837956D01*
X141917978Y-124714000D01*
X141900156Y-124590044D01*
X141848133Y-124476130D01*
X141766124Y-124381487D01*
X141766124Y-124381486D01*
X141660774Y-124313782D01*
X141540616Y-124278500D01*
X141540615Y-124278500D01*
X141415385Y-124278500D01*
X141415383Y-124278500D01*
X141295225Y-124313782D01*
X141189875Y-124381486D01*
X141189875Y-124381487D01*
X141107868Y-124476128D01*
X141055843Y-124590046D01*
X141055842Y-124590048D01*
X141038022Y-124713997D01*
X141038022Y-124714002D01*
X123190000Y-124714002D01*
X123190000Y-123444002D01*
X146245022Y-123444002D01*
X146262842Y-123567951D01*
X146262843Y-123567953D01*
X146262843Y-123567954D01*
X146262844Y-123567956D01*
X146314867Y-123681870D01*
X146314868Y-123681871D01*
X146396875Y-123776512D01*
X146396875Y-123776513D01*
X146502225Y-123844217D01*
X146502227Y-123844218D01*
X146622385Y-123879500D01*
X146622386Y-123879500D01*
X146747614Y-123879500D01*
X146747615Y-123879500D01*
X146867773Y-123844218D01*
X146973124Y-123776513D01*
X147055133Y-123681870D01*
X147107156Y-123567956D01*
X147124978Y-123444000D01*
X147107156Y-123320044D01*
X147055133Y-123206130D01*
X146973124Y-123111487D01*
X146973124Y-123111486D01*
X146867774Y-123043782D01*
X146747616Y-123008500D01*
X146747615Y-123008500D01*
X146622385Y-123008500D01*
X146622383Y-123008500D01*
X146502225Y-123043782D01*
X146396875Y-123111486D01*
X146396875Y-123111487D01*
X146314868Y-123206128D01*
X146262843Y-123320046D01*
X146262842Y-123320048D01*
X146245022Y-123443997D01*
X146245022Y-123444002D01*
X123190000Y-123444002D01*
X123190000Y-122555002D01*
X137990022Y-122555002D01*
X138007842Y-122678951D01*
X138007843Y-122678953D01*
X138007843Y-122678954D01*
X138007844Y-122678956D01*
X138059867Y-122792870D01*
X138059868Y-122792871D01*
X138141875Y-122887512D01*
X138141875Y-122887513D01*
X138247225Y-122955217D01*
X138247227Y-122955218D01*
X138367385Y-122990500D01*
X138367386Y-122990500D01*
X138492614Y-122990500D01*
X138492615Y-122990500D01*
X138612773Y-122955218D01*
X138718124Y-122887513D01*
X138800133Y-122792870D01*
X138852156Y-122678956D01*
X138869978Y-122555000D01*
X138852156Y-122431044D01*
X138800133Y-122317130D01*
X138718124Y-122222487D01*
X138718124Y-122222486D01*
X138612774Y-122154782D01*
X138492616Y-122119500D01*
X138492615Y-122119500D01*
X138367385Y-122119500D01*
X138367383Y-122119500D01*
X138247225Y-122154782D01*
X138141875Y-122222486D01*
X138141875Y-122222487D01*
X138059868Y-122317128D01*
X138007843Y-122431046D01*
X138007842Y-122431048D01*
X137990022Y-122554997D01*
X137990022Y-122555002D01*
X123190000Y-122555002D01*
X123190000Y-121350305D01*
X140657022Y-121350305D01*
X140674842Y-121474254D01*
X140674843Y-121474256D01*
X140674843Y-121474257D01*
X140674844Y-121474259D01*
X140726867Y-121588173D01*
X140726868Y-121588174D01*
X140808875Y-121682815D01*
X140808875Y-121682816D01*
X140914225Y-121750520D01*
X140914227Y-121750521D01*
X141034385Y-121785803D01*
X141034386Y-121785803D01*
X141159614Y-121785803D01*
X141159615Y-121785803D01*
X141279773Y-121750521D01*
X141385124Y-121682816D01*
X141467133Y-121588173D01*
X141519156Y-121474259D01*
X141536978Y-121350303D01*
X141519156Y-121226347D01*
X141467133Y-121112433D01*
X141385124Y-121017790D01*
X141385124Y-121017789D01*
X141279774Y-120950085D01*
X141159616Y-120914803D01*
X141159615Y-120914803D01*
X141034385Y-120914803D01*
X141034383Y-120914803D01*
X140914225Y-120950085D01*
X140808875Y-121017789D01*
X140808875Y-121017790D01*
X140726868Y-121112431D01*
X140674843Y-121226349D01*
X140674842Y-121226351D01*
X140657022Y-121350300D01*
X140657022Y-121350305D01*
X123190000Y-121350305D01*
X123190000Y-120492477D01*
X151706022Y-120492477D01*
X151723842Y-120616426D01*
X151723843Y-120616428D01*
X151723843Y-120616429D01*
X151723844Y-120616431D01*
X151775867Y-120730345D01*
X151775868Y-120730346D01*
X151857875Y-120824987D01*
X151857875Y-120824988D01*
X151963225Y-120892692D01*
X151963227Y-120892693D01*
X152083385Y-120927975D01*
X152083386Y-120927975D01*
X152208614Y-120927975D01*
X152208615Y-120927975D01*
X152328773Y-120892693D01*
X152434124Y-120824988D01*
X152516133Y-120730345D01*
X152552825Y-120650002D01*
X157040022Y-120650002D01*
X157057842Y-120773951D01*
X157057843Y-120773953D01*
X157057843Y-120773954D01*
X157057844Y-120773956D01*
X157109867Y-120887870D01*
X157109868Y-120887871D01*
X157191875Y-120982512D01*
X157191875Y-120982513D01*
X157297225Y-121050217D01*
X157297227Y-121050218D01*
X157417385Y-121085500D01*
X157417386Y-121085500D01*
X157542614Y-121085500D01*
X157542615Y-121085500D01*
X157662773Y-121050218D01*
X157768124Y-120982513D01*
X157850133Y-120887870D01*
X157902156Y-120773956D01*
X157908426Y-120730346D01*
X157919978Y-120650002D01*
X157919978Y-120649997D01*
X157902157Y-120526048D01*
X157902156Y-120526046D01*
X157902156Y-120526044D01*
X157850133Y-120412130D01*
X157768124Y-120317487D01*
X157768124Y-120317486D01*
X157662774Y-120249782D01*
X157542616Y-120214500D01*
X157542615Y-120214500D01*
X157417385Y-120214500D01*
X157417383Y-120214500D01*
X157297225Y-120249782D01*
X157191875Y-120317486D01*
X157191875Y-120317487D01*
X157109868Y-120412128D01*
X157057843Y-120526046D01*
X157057842Y-120526048D01*
X157040022Y-120649997D01*
X157040022Y-120650002D01*
X152552825Y-120650002D01*
X152568156Y-120616431D01*
X152581151Y-120526048D01*
X152585978Y-120492477D01*
X152585978Y-120492472D01*
X152568157Y-120368523D01*
X152568156Y-120368521D01*
X152568156Y-120368519D01*
X152516133Y-120254605D01*
X152434124Y-120159962D01*
X152434124Y-120159961D01*
X152328774Y-120092257D01*
X152208616Y-120056975D01*
X152208615Y-120056975D01*
X152083385Y-120056975D01*
X152083383Y-120056975D01*
X151963225Y-120092257D01*
X151857875Y-120159961D01*
X151857875Y-120159962D01*
X151775868Y-120254603D01*
X151723843Y-120368521D01*
X151723842Y-120368523D01*
X151706022Y-120492472D01*
X151706022Y-120492477D01*
X123190000Y-120492477D01*
X123190000Y-119754002D01*
X153357022Y-119754002D01*
X153374842Y-119877951D01*
X153374843Y-119877953D01*
X153374843Y-119877954D01*
X153374844Y-119877956D01*
X153426867Y-119991870D01*
X153426868Y-119991871D01*
X153508875Y-120086512D01*
X153508875Y-120086513D01*
X153614225Y-120154217D01*
X153614227Y-120154218D01*
X153734385Y-120189500D01*
X153734386Y-120189500D01*
X153859614Y-120189500D01*
X153859615Y-120189500D01*
X153979773Y-120154218D01*
X154085124Y-120086513D01*
X154167133Y-119991870D01*
X154219156Y-119877956D01*
X154236978Y-119754000D01*
X154219156Y-119630044D01*
X154167133Y-119516130D01*
X154085124Y-119421487D01*
X154085124Y-119421486D01*
X153979774Y-119353782D01*
X153859616Y-119318500D01*
X153859615Y-119318500D01*
X153734385Y-119318500D01*
X153734383Y-119318500D01*
X153614225Y-119353782D01*
X153508875Y-119421486D01*
X153508875Y-119421487D01*
X153426868Y-119516128D01*
X153374843Y-119630046D01*
X153374842Y-119630048D01*
X153357022Y-119753997D01*
X153357022Y-119754002D01*
X123190000Y-119754002D01*
X123190000Y-115911152D01*
X150018672Y-115911152D01*
X150036492Y-116035101D01*
X150036493Y-116035103D01*
X150036493Y-116035104D01*
X150036494Y-116035106D01*
X150088517Y-116149020D01*
X150088518Y-116149021D01*
X150170525Y-116243662D01*
X150170525Y-116243663D01*
X150275875Y-116311367D01*
X150275877Y-116311368D01*
X150396035Y-116346650D01*
X150396036Y-116346650D01*
X150521264Y-116346650D01*
X150521265Y-116346650D01*
X150641423Y-116311368D01*
X150746774Y-116243663D01*
X150828783Y-116149020D01*
X150880806Y-116035106D01*
X150898628Y-115911150D01*
X150880806Y-115787194D01*
X150828783Y-115673280D01*
X150746774Y-115578637D01*
X150746774Y-115578636D01*
X150641424Y-115510932D01*
X150521266Y-115475650D01*
X150521265Y-115475650D01*
X150396035Y-115475650D01*
X150396033Y-115475650D01*
X150275875Y-115510932D01*
X150170525Y-115578636D01*
X150170525Y-115578637D01*
X150088518Y-115673278D01*
X150036493Y-115787196D01*
X150036492Y-115787198D01*
X150018672Y-115911147D01*
X150018672Y-115911152D01*
X123190000Y-115911152D01*
X123190000Y-104006006D01*
X128667973Y-104006006D01*
X128688063Y-104338143D01*
X128748043Y-104665437D01*
X128748043Y-104665439D01*
X128748044Y-104665441D01*
X128847037Y-104983123D01*
X128983602Y-105286557D01*
X128983606Y-105286565D01*
X128983610Y-105286571D01*
X129155737Y-105571304D01*
X129155741Y-105571310D01*
X129155746Y-105571318D01*
X129360958Y-105833252D01*
X129596248Y-106068542D01*
X129858182Y-106273754D01*
X130142943Y-106445898D01*
X130446377Y-106582463D01*
X130764059Y-106681456D01*
X130982258Y-106721442D01*
X131091357Y-106741436D01*
X131091354Y-106741436D01*
X131340388Y-106756500D01*
X131340394Y-106756500D01*
X131506612Y-106756500D01*
X131755643Y-106741436D01*
X131821101Y-106729439D01*
X132082941Y-106681456D01*
X132400623Y-106582463D01*
X132704057Y-106445898D01*
X132988818Y-106273754D01*
X133250752Y-106068542D01*
X133486042Y-105833252D01*
X133691254Y-105571318D01*
X133863398Y-105286557D01*
X133999963Y-104983123D01*
X134098956Y-104665441D01*
X134158936Y-104338142D01*
X134179027Y-104006006D01*
X144524473Y-104006006D01*
X144544563Y-104338143D01*
X144604543Y-104665437D01*
X144604543Y-104665439D01*
X144604544Y-104665441D01*
X144703537Y-104983123D01*
X144840102Y-105286557D01*
X144840106Y-105286565D01*
X144840110Y-105286571D01*
X145012237Y-105571304D01*
X145012241Y-105571310D01*
X145012246Y-105571318D01*
X145217458Y-105833252D01*
X145452748Y-106068542D01*
X145714682Y-106273754D01*
X145999443Y-106445898D01*
X146302877Y-106582463D01*
X146620559Y-106681456D01*
X146838758Y-106721442D01*
X146947857Y-106741436D01*
X146947854Y-106741436D01*
X147196888Y-106756500D01*
X147196894Y-106756500D01*
X147363112Y-106756500D01*
X147612143Y-106741436D01*
X147677601Y-106729440D01*
X147939441Y-106681456D01*
X148257123Y-106582463D01*
X148560557Y-106445898D01*
X148845318Y-106273754D01*
X149107252Y-106068542D01*
X149342542Y-105833252D01*
X149547754Y-105571318D01*
X149719898Y-105286557D01*
X149856463Y-104983123D01*
X149955456Y-104665441D01*
X150015436Y-104338142D01*
X150035527Y-104006006D01*
X160380973Y-104006006D01*
X160401063Y-104338143D01*
X160461043Y-104665437D01*
X160461043Y-104665439D01*
X160461044Y-104665441D01*
X160560037Y-104983123D01*
X160696602Y-105286557D01*
X160696606Y-105286565D01*
X160696610Y-105286571D01*
X160868737Y-105571304D01*
X160868741Y-105571310D01*
X160868746Y-105571318D01*
X161073958Y-105833252D01*
X161309248Y-106068542D01*
X161571182Y-106273754D01*
X161855943Y-106445898D01*
X162159377Y-106582463D01*
X162477059Y-106681456D01*
X162695258Y-106721442D01*
X162804357Y-106741436D01*
X162804354Y-106741436D01*
X163053388Y-106756500D01*
X163053394Y-106756500D01*
X163219612Y-106756500D01*
X163468643Y-106741436D01*
X163534101Y-106729439D01*
X163795941Y-106681456D01*
X164113623Y-106582463D01*
X164417057Y-106445898D01*
X164701818Y-106273754D01*
X164963752Y-106068542D01*
X165199042Y-105833252D01*
X165404254Y-105571318D01*
X165576398Y-105286557D01*
X165712963Y-104983123D01*
X165811956Y-104665441D01*
X165871936Y-104338142D01*
X165892027Y-104006000D01*
X165871936Y-103673858D01*
X165811956Y-103346559D01*
X165712963Y-103028877D01*
X165576398Y-102725443D01*
X165404254Y-102440682D01*
X165199042Y-102178748D01*
X164963752Y-101943458D01*
X164701818Y-101738246D01*
X164701810Y-101738241D01*
X164701804Y-101738237D01*
X164417071Y-101566110D01*
X164417065Y-101566106D01*
X164417057Y-101566102D01*
X164341029Y-101531884D01*
X164113624Y-101429537D01*
X163795938Y-101330543D01*
X163468642Y-101270563D01*
X163468645Y-101270563D01*
X163219612Y-101255500D01*
X163219606Y-101255500D01*
X163053394Y-101255500D01*
X163053388Y-101255500D01*
X162804356Y-101270563D01*
X162477062Y-101330543D01*
X162477060Y-101330543D01*
X162159375Y-101429537D01*
X161855949Y-101566099D01*
X161855928Y-101566110D01*
X161571195Y-101738237D01*
X161571176Y-101738250D01*
X161309254Y-101943453D01*
X161309251Y-101943455D01*
X161073955Y-102178751D01*
X161073953Y-102178754D01*
X160868750Y-102440676D01*
X160868737Y-102440695D01*
X160696610Y-102725428D01*
X160696599Y-102725449D01*
X160560037Y-103028875D01*
X160461043Y-103346560D01*
X160461043Y-103346562D01*
X160401063Y-103673856D01*
X160380973Y-104005993D01*
X160380973Y-104006006D01*
X150035527Y-104006006D01*
X150035527Y-104006000D01*
X150015436Y-103673858D01*
X149955456Y-103346559D01*
X149856463Y-103028877D01*
X149719898Y-102725443D01*
X149547754Y-102440682D01*
X149342542Y-102178748D01*
X149107252Y-101943458D01*
X148845318Y-101738246D01*
X148845310Y-101738241D01*
X148845304Y-101738237D01*
X148560571Y-101566110D01*
X148560565Y-101566106D01*
X148560557Y-101566102D01*
X148484529Y-101531884D01*
X148257124Y-101429537D01*
X147939438Y-101330543D01*
X147612142Y-101270563D01*
X147612145Y-101270563D01*
X147363112Y-101255500D01*
X147363106Y-101255500D01*
X147196894Y-101255500D01*
X147196888Y-101255500D01*
X146947856Y-101270563D01*
X146620562Y-101330543D01*
X146620560Y-101330543D01*
X146302875Y-101429537D01*
X145999449Y-101566099D01*
X145999428Y-101566110D01*
X145714695Y-101738237D01*
X145714676Y-101738250D01*
X145452754Y-101943453D01*
X145452751Y-101943455D01*
X145217455Y-102178751D01*
X145217453Y-102178754D01*
X145012250Y-102440676D01*
X145012237Y-102440695D01*
X144840110Y-102725428D01*
X144840099Y-102725449D01*
X144703537Y-103028875D01*
X144604543Y-103346560D01*
X144604543Y-103346562D01*
X144544563Y-103673856D01*
X144524473Y-104005993D01*
X144524473Y-104006006D01*
X134179027Y-104006006D01*
X134179027Y-104006000D01*
X134158936Y-103673858D01*
X134098956Y-103346559D01*
X133999963Y-103028877D01*
X133863398Y-102725443D01*
X133691254Y-102440682D01*
X133486042Y-102178748D01*
X133250752Y-101943458D01*
X132988818Y-101738246D01*
X132988810Y-101738241D01*
X132988804Y-101738237D01*
X132704071Y-101566110D01*
X132704065Y-101566106D01*
X132704057Y-101566102D01*
X132628029Y-101531884D01*
X132400624Y-101429537D01*
X132082938Y-101330543D01*
X131755642Y-101270563D01*
X131755645Y-101270563D01*
X131506612Y-101255500D01*
X131506606Y-101255500D01*
X131340394Y-101255500D01*
X131340388Y-101255500D01*
X131091356Y-101270563D01*
X130764062Y-101330543D01*
X130764060Y-101330543D01*
X130446375Y-101429537D01*
X130142949Y-101566099D01*
X130142928Y-101566110D01*
X129858195Y-101738237D01*
X129858176Y-101738250D01*
X129596254Y-101943453D01*
X129596251Y-101943455D01*
X129360955Y-102178751D01*
X129360953Y-102178754D01*
X129155750Y-102440676D01*
X129155737Y-102440695D01*
X128983610Y-102725428D01*
X128983599Y-102725449D01*
X128847037Y-103028875D01*
X128748043Y-103346560D01*
X128748043Y-103346562D01*
X128688063Y-103673856D01*
X128667973Y-104005993D01*
X128667973Y-104006006D01*
X123190000Y-104006006D01*
X123190000Y-98044002D01*
X146753022Y-98044002D01*
X146770842Y-98167951D01*
X146770843Y-98167953D01*
X146770843Y-98167954D01*
X146770844Y-98167956D01*
X146822867Y-98281870D01*
X146839483Y-98301046D01*
X146904875Y-98376512D01*
X146904875Y-98376513D01*
X146980323Y-98425000D01*
X147010227Y-98444218D01*
X147130385Y-98479500D01*
X147130386Y-98479500D01*
X147255614Y-98479500D01*
X147255615Y-98479500D01*
X147375773Y-98444218D01*
X147405674Y-98425002D01*
X155262022Y-98425002D01*
X155279842Y-98548951D01*
X155279843Y-98548953D01*
X155279843Y-98548954D01*
X155279844Y-98548956D01*
X155331867Y-98662870D01*
X155331868Y-98662871D01*
X155413875Y-98757512D01*
X155413875Y-98757513D01*
X155519225Y-98825217D01*
X155519227Y-98825218D01*
X155639385Y-98860500D01*
X155639386Y-98860500D01*
X155764614Y-98860500D01*
X155764615Y-98860500D01*
X155884773Y-98825218D01*
X155990124Y-98757513D01*
X156072133Y-98662870D01*
X156124156Y-98548956D01*
X156134142Y-98479500D01*
X156141978Y-98425002D01*
X157548022Y-98425002D01*
X157565842Y-98548951D01*
X157565843Y-98548953D01*
X157565843Y-98548954D01*
X157565844Y-98548956D01*
X157617867Y-98662870D01*
X157617868Y-98662871D01*
X157699875Y-98757512D01*
X157699875Y-98757513D01*
X157805225Y-98825217D01*
X157805227Y-98825218D01*
X157925385Y-98860500D01*
X157925386Y-98860500D01*
X158050614Y-98860500D01*
X158050615Y-98860500D01*
X158170773Y-98825218D01*
X158276124Y-98757513D01*
X158358133Y-98662870D01*
X158410156Y-98548956D01*
X158420142Y-98479500D01*
X158427978Y-98425002D01*
X161184214Y-98425002D01*
X161202034Y-98548951D01*
X161202035Y-98548953D01*
X161202035Y-98548954D01*
X161202036Y-98548956D01*
X161254059Y-98662870D01*
X161254060Y-98662871D01*
X161336067Y-98757512D01*
X161336067Y-98757513D01*
X161441417Y-98825217D01*
X161441419Y-98825218D01*
X161561577Y-98860500D01*
X161561578Y-98860500D01*
X161686806Y-98860500D01*
X161686807Y-98860500D01*
X161806965Y-98825218D01*
X161912316Y-98757513D01*
X161994325Y-98662870D01*
X162046348Y-98548956D01*
X162056334Y-98479500D01*
X162064170Y-98425002D01*
X162064170Y-98424997D01*
X162046349Y-98301048D01*
X162046348Y-98301046D01*
X162046348Y-98301044D01*
X161994325Y-98187130D01*
X161912316Y-98092487D01*
X161912316Y-98092486D01*
X161806966Y-98024782D01*
X161686808Y-97989500D01*
X161686807Y-97989500D01*
X161561577Y-97989500D01*
X161561575Y-97989500D01*
X161441417Y-98024782D01*
X161336067Y-98092486D01*
X161336067Y-98092487D01*
X161254060Y-98187128D01*
X161202035Y-98301046D01*
X161202034Y-98301048D01*
X161184214Y-98424997D01*
X161184214Y-98425002D01*
X158427978Y-98425002D01*
X158427978Y-98424997D01*
X158410157Y-98301048D01*
X158410156Y-98301046D01*
X158410156Y-98301044D01*
X158358133Y-98187130D01*
X158276124Y-98092487D01*
X158276124Y-98092486D01*
X158170774Y-98024782D01*
X158050616Y-97989500D01*
X158050615Y-97989500D01*
X157925385Y-97989500D01*
X157925383Y-97989500D01*
X157805225Y-98024782D01*
X157699875Y-98092486D01*
X157699875Y-98092487D01*
X157617868Y-98187128D01*
X157565843Y-98301046D01*
X157565842Y-98301048D01*
X157548022Y-98424997D01*
X157548022Y-98425002D01*
X156141978Y-98425002D01*
X156141978Y-98424997D01*
X156124157Y-98301048D01*
X156124156Y-98301046D01*
X156124156Y-98301044D01*
X156072133Y-98187130D01*
X155990124Y-98092487D01*
X155990124Y-98092486D01*
X155884774Y-98024782D01*
X155764616Y-97989500D01*
X155764615Y-97989500D01*
X155639385Y-97989500D01*
X155639383Y-97989500D01*
X155519225Y-98024782D01*
X155413875Y-98092486D01*
X155413875Y-98092487D01*
X155331868Y-98187128D01*
X155279843Y-98301046D01*
X155279842Y-98301048D01*
X155262022Y-98424997D01*
X155262022Y-98425002D01*
X147405674Y-98425002D01*
X147481124Y-98376513D01*
X147563133Y-98281870D01*
X147615156Y-98167956D01*
X147632978Y-98044000D01*
X147625142Y-97989500D01*
X147615157Y-97920048D01*
X147615156Y-97920046D01*
X147615156Y-97920044D01*
X147563133Y-97806130D01*
X147481124Y-97711487D01*
X147481124Y-97711486D01*
X147375774Y-97643782D01*
X147255616Y-97608500D01*
X147255615Y-97608500D01*
X147130385Y-97608500D01*
X147130383Y-97608500D01*
X147010225Y-97643782D01*
X146904875Y-97711486D01*
X146904875Y-97711487D01*
X146822868Y-97806128D01*
X146770843Y-97920046D01*
X146770842Y-97920048D01*
X146753022Y-98043997D01*
X146753022Y-98044002D01*
X123190000Y-98044002D01*
X123190000Y-96774002D01*
X145483022Y-96774002D01*
X145500842Y-96897951D01*
X145500843Y-96897953D01*
X145500843Y-96897954D01*
X145500844Y-96897956D01*
X145552867Y-97011870D01*
X145552868Y-97011871D01*
X145634875Y-97106512D01*
X145634875Y-97106513D01*
X145740225Y-97174217D01*
X145740227Y-97174218D01*
X145860385Y-97209500D01*
X145860386Y-97209500D01*
X145985614Y-97209500D01*
X145985615Y-97209500D01*
X146105773Y-97174218D01*
X146211124Y-97106513D01*
X146293133Y-97011870D01*
X146345156Y-96897956D01*
X146362978Y-96774000D01*
X146345156Y-96650044D01*
X146293133Y-96536130D01*
X146211124Y-96441487D01*
X146211124Y-96441486D01*
X146105774Y-96373782D01*
X145985616Y-96338500D01*
X145985615Y-96338500D01*
X145860385Y-96338500D01*
X145860383Y-96338500D01*
X145740225Y-96373782D01*
X145634875Y-96441486D01*
X145634875Y-96441487D01*
X145552868Y-96536128D01*
X145500843Y-96650046D01*
X145500842Y-96650048D01*
X145483022Y-96773997D01*
X145483022Y-96774002D01*
X123190000Y-96774002D01*
X123190000Y-95504002D01*
X159363522Y-95504002D01*
X159381342Y-95627951D01*
X159381343Y-95627953D01*
X159381343Y-95627954D01*
X159381344Y-95627956D01*
X159433367Y-95741870D01*
X159433368Y-95741871D01*
X159515375Y-95836512D01*
X159515375Y-95836513D01*
X159620725Y-95904217D01*
X159620727Y-95904218D01*
X159740885Y-95939500D01*
X159740886Y-95939500D01*
X159866114Y-95939500D01*
X159866115Y-95939500D01*
X159986273Y-95904218D01*
X160091624Y-95836513D01*
X160173633Y-95741870D01*
X160225656Y-95627956D01*
X160243478Y-95504002D01*
X165196522Y-95504002D01*
X165214342Y-95627951D01*
X165214343Y-95627953D01*
X165214343Y-95627954D01*
X165214344Y-95627956D01*
X165266367Y-95741870D01*
X165266368Y-95741871D01*
X165348375Y-95836512D01*
X165348375Y-95836513D01*
X165453725Y-95904217D01*
X165453727Y-95904218D01*
X165573885Y-95939500D01*
X165573886Y-95939500D01*
X165699114Y-95939500D01*
X165699115Y-95939500D01*
X165819273Y-95904218D01*
X165924624Y-95836513D01*
X166006633Y-95741870D01*
X166058656Y-95627956D01*
X166076478Y-95504000D01*
X166058656Y-95380044D01*
X166006633Y-95266130D01*
X165924624Y-95171487D01*
X165924624Y-95171486D01*
X165819274Y-95103782D01*
X165699116Y-95068500D01*
X165699115Y-95068500D01*
X165573885Y-95068500D01*
X165573883Y-95068500D01*
X165453725Y-95103782D01*
X165348375Y-95171486D01*
X165348375Y-95171487D01*
X165266368Y-95266128D01*
X165214343Y-95380046D01*
X165214342Y-95380048D01*
X165196522Y-95503997D01*
X165196522Y-95504002D01*
X160243478Y-95504002D01*
X160243478Y-95504000D01*
X160225656Y-95380044D01*
X160173633Y-95266130D01*
X160091624Y-95171487D01*
X160091624Y-95171486D01*
X159986274Y-95103782D01*
X159866116Y-95068500D01*
X159866115Y-95068500D01*
X159740885Y-95068500D01*
X159740883Y-95068500D01*
X159620725Y-95103782D01*
X159515375Y-95171486D01*
X159515375Y-95171487D01*
X159433368Y-95266128D01*
X159381343Y-95380046D01*
X159381342Y-95380048D01*
X159363522Y-95503997D01*
X159363522Y-95504002D01*
X123190000Y-95504002D01*
X123190000Y-82769859D01*
X127419265Y-82769859D01*
X127449105Y-83168048D01*
X127449107Y-83168060D01*
X127483929Y-83365544D01*
X127518447Y-83561303D01*
X127626597Y-83945691D01*
X127772481Y-84317400D01*
X127772488Y-84317415D01*
X127864737Y-84497352D01*
X127954653Y-84672739D01*
X128171299Y-85008173D01*
X128171303Y-85008178D01*
X128171305Y-85008181D01*
X128420252Y-85320352D01*
X128420262Y-85320363D01*
X128420267Y-85320369D01*
X128699082Y-85606224D01*
X128699086Y-85606227D01*
X129004971Y-85862896D01*
X129004974Y-85862898D01*
X129334902Y-86087839D01*
X129685588Y-86278812D01*
X130053545Y-86433919D01*
X130435118Y-86551619D01*
X130826514Y-86630741D01*
X131124510Y-86660560D01*
X131223841Y-86670500D01*
X131223843Y-86670500D01*
X131523255Y-86670500D01*
X131523264Y-86670500D01*
X131822317Y-86655575D01*
X132217170Y-86596060D01*
X132604136Y-86497527D01*
X132979367Y-86360954D01*
X133339136Y-86187698D01*
X133679867Y-85979482D01*
X133998172Y-85738375D01*
X134290890Y-85466773D01*
X134555110Y-85167375D01*
X134788206Y-84843158D01*
X134987863Y-84497342D01*
X135152095Y-84133366D01*
X135279271Y-83754846D01*
X135368127Y-83365544D01*
X135417779Y-82969330D01*
X135422753Y-82769859D01*
X143275765Y-82769859D01*
X143305605Y-83168048D01*
X143305607Y-83168060D01*
X143340429Y-83365544D01*
X143374947Y-83561303D01*
X143483097Y-83945691D01*
X143628981Y-84317400D01*
X143628988Y-84317415D01*
X143721237Y-84497352D01*
X143811153Y-84672739D01*
X144027799Y-85008173D01*
X144027803Y-85008178D01*
X144027805Y-85008181D01*
X144276752Y-85320352D01*
X144276762Y-85320363D01*
X144276767Y-85320369D01*
X144555582Y-85606224D01*
X144555586Y-85606227D01*
X144861471Y-85862896D01*
X144861474Y-85862898D01*
X145191402Y-86087839D01*
X145542088Y-86278812D01*
X145910045Y-86433919D01*
X146291618Y-86551619D01*
X146683014Y-86630741D01*
X146981010Y-86660560D01*
X147080341Y-86670500D01*
X147080343Y-86670500D01*
X147379755Y-86670500D01*
X147379764Y-86670500D01*
X147678817Y-86655575D01*
X148073670Y-86596060D01*
X148460636Y-86497527D01*
X148835867Y-86360954D01*
X149195636Y-86187698D01*
X149536367Y-85979482D01*
X149854672Y-85738375D01*
X150147390Y-85466773D01*
X150411610Y-85167375D01*
X150644706Y-84843158D01*
X150844363Y-84497342D01*
X151008595Y-84133366D01*
X151135771Y-83754846D01*
X151224627Y-83365544D01*
X151274279Y-82969330D01*
X151279253Y-82769859D01*
X159132265Y-82769859D01*
X159162105Y-83168048D01*
X159162107Y-83168060D01*
X159196929Y-83365544D01*
X159231447Y-83561303D01*
X159339597Y-83945691D01*
X159485481Y-84317400D01*
X159485488Y-84317415D01*
X159577737Y-84497352D01*
X159667653Y-84672739D01*
X159884299Y-85008173D01*
X159884303Y-85008178D01*
X159884305Y-85008181D01*
X160133252Y-85320352D01*
X160133262Y-85320363D01*
X160133267Y-85320369D01*
X160412082Y-85606224D01*
X160412086Y-85606227D01*
X160717971Y-85862896D01*
X160717974Y-85862898D01*
X161047902Y-86087839D01*
X161398588Y-86278812D01*
X161766545Y-86433919D01*
X162148118Y-86551619D01*
X162539514Y-86630741D01*
X162837510Y-86660560D01*
X162936841Y-86670500D01*
X162936843Y-86670500D01*
X163236255Y-86670500D01*
X163236264Y-86670500D01*
X163535317Y-86655575D01*
X163930170Y-86596060D01*
X164317136Y-86497527D01*
X164692367Y-86360954D01*
X165052136Y-86187698D01*
X165392867Y-85979482D01*
X165711172Y-85738375D01*
X166003890Y-85466773D01*
X166268110Y-85167375D01*
X166501206Y-84843158D01*
X166700863Y-84497342D01*
X166865095Y-84133366D01*
X166992271Y-83754846D01*
X167081127Y-83365544D01*
X167130779Y-82969330D01*
X167140734Y-82570141D01*
X167110893Y-82171944D01*
X167041553Y-81778697D01*
X166933403Y-81394308D01*
X166787518Y-81022598D01*
X166605347Y-80667261D01*
X166388701Y-80331827D01*
X166261742Y-80172625D01*
X166139747Y-80019647D01*
X166139738Y-80019637D01*
X166139733Y-80019631D01*
X165860918Y-79733776D01*
X165703427Y-79601625D01*
X165555028Y-79477103D01*
X165384033Y-79360521D01*
X165225098Y-79252161D01*
X164874417Y-79061190D01*
X164874413Y-79061188D01*
X164506458Y-78906082D01*
X164506455Y-78906081D01*
X164124882Y-78788381D01*
X164124874Y-78788379D01*
X164124873Y-78788379D01*
X163905039Y-78743939D01*
X163733486Y-78709259D01*
X163733482Y-78709258D01*
X163733479Y-78709258D01*
X163336159Y-78669500D01*
X163336157Y-78669500D01*
X163036736Y-78669500D01*
X162947136Y-78673971D01*
X162737682Y-78684424D01*
X162342833Y-78743939D01*
X162247949Y-78768099D01*
X161955864Y-78842473D01*
X161955857Y-78842475D01*
X161955859Y-78842475D01*
X161580628Y-78979048D01*
X161220880Y-79152293D01*
X161220864Y-79152302D01*
X160880127Y-79360521D01*
X160561828Y-79601624D01*
X160269109Y-79873227D01*
X160004895Y-80172618D01*
X160004891Y-80172623D01*
X159771790Y-80496848D01*
X159572142Y-80842647D01*
X159572130Y-80842670D01*
X159407910Y-81206620D01*
X159407908Y-81206625D01*
X159280730Y-81585150D01*
X159191872Y-81974459D01*
X159142220Y-82370675D01*
X159132265Y-82769859D01*
X151279253Y-82769859D01*
X151284234Y-82570141D01*
X151254393Y-82171944D01*
X151185053Y-81778697D01*
X151076903Y-81394308D01*
X150931018Y-81022598D01*
X150748847Y-80667261D01*
X150532201Y-80331827D01*
X150405242Y-80172625D01*
X150283247Y-80019647D01*
X150283238Y-80019637D01*
X150283233Y-80019631D01*
X150004418Y-79733776D01*
X149846927Y-79601625D01*
X149698528Y-79477103D01*
X149527533Y-79360521D01*
X149368598Y-79252161D01*
X149017917Y-79061190D01*
X149017913Y-79061188D01*
X148649958Y-78906082D01*
X148649955Y-78906081D01*
X148268382Y-78788381D01*
X148268374Y-78788379D01*
X148268373Y-78788379D01*
X148048539Y-78743939D01*
X147876986Y-78709259D01*
X147876982Y-78709258D01*
X147876979Y-78709258D01*
X147479659Y-78669500D01*
X147479657Y-78669500D01*
X147180236Y-78669500D01*
X147090636Y-78673971D01*
X146881182Y-78684424D01*
X146486333Y-78743939D01*
X146391449Y-78768099D01*
X146099364Y-78842473D01*
X146099357Y-78842475D01*
X146099359Y-78842475D01*
X145724128Y-78979048D01*
X145364380Y-79152293D01*
X145364364Y-79152302D01*
X145023627Y-79360521D01*
X144705328Y-79601624D01*
X144412609Y-79873227D01*
X144148395Y-80172618D01*
X144148391Y-80172623D01*
X143915290Y-80496848D01*
X143715642Y-80842647D01*
X143715630Y-80842670D01*
X143551410Y-81206620D01*
X143551408Y-81206625D01*
X143424230Y-81585150D01*
X143335372Y-81974459D01*
X143285720Y-82370675D01*
X143275765Y-82769859D01*
X135422753Y-82769859D01*
X135427734Y-82570141D01*
X135397893Y-82171944D01*
X135328553Y-81778697D01*
X135220403Y-81394308D01*
X135074518Y-81022598D01*
X134892347Y-80667261D01*
X134675701Y-80331827D01*
X134548742Y-80172625D01*
X134426747Y-80019647D01*
X134426738Y-80019637D01*
X134426733Y-80019631D01*
X134147918Y-79733776D01*
X133990427Y-79601625D01*
X133842028Y-79477103D01*
X133671033Y-79360521D01*
X133512098Y-79252161D01*
X133161417Y-79061190D01*
X133161413Y-79061188D01*
X132793458Y-78906082D01*
X132793455Y-78906081D01*
X132411882Y-78788381D01*
X132411874Y-78788379D01*
X132411873Y-78788379D01*
X132192039Y-78743939D01*
X132020486Y-78709259D01*
X132020482Y-78709258D01*
X132020479Y-78709258D01*
X131623159Y-78669500D01*
X131623157Y-78669500D01*
X131323736Y-78669500D01*
X131234136Y-78673971D01*
X131024682Y-78684424D01*
X130629833Y-78743939D01*
X130534949Y-78768099D01*
X130242864Y-78842473D01*
X130242857Y-78842475D01*
X130242859Y-78842475D01*
X129867628Y-78979048D01*
X129507880Y-79152293D01*
X129507864Y-79152302D01*
X129167127Y-79360521D01*
X128848828Y-79601624D01*
X128556109Y-79873227D01*
X128291895Y-80172618D01*
X128291891Y-80172623D01*
X128058790Y-80496848D01*
X127859142Y-80842647D01*
X127859130Y-80842670D01*
X127694910Y-81206620D01*
X127694908Y-81206625D01*
X127567730Y-81585150D01*
X127478872Y-81974459D01*
X127429220Y-82370675D01*
X127419265Y-82769859D01*
X123190000Y-82769859D01*
X123190000Y-65652006D01*
X136596223Y-65652006D01*
X136616313Y-65984143D01*
X136676293Y-66311437D01*
X136676293Y-66311439D01*
X136676294Y-66311441D01*
X136775287Y-66629123D01*
X136911852Y-66932557D01*
X136911856Y-66932565D01*
X136911860Y-66932571D01*
X137083987Y-67217304D01*
X137083991Y-67217310D01*
X137083996Y-67217318D01*
X137289208Y-67479252D01*
X137524498Y-67714542D01*
X137786432Y-67919754D01*
X138071193Y-68091898D01*
X138374627Y-68228463D01*
X138692309Y-68327456D01*
X138910508Y-68367442D01*
X139019607Y-68387436D01*
X139019604Y-68387436D01*
X139268638Y-68402500D01*
X139268644Y-68402500D01*
X139434862Y-68402500D01*
X139683893Y-68387436D01*
X139749351Y-68375439D01*
X140011191Y-68327456D01*
X140328873Y-68228463D01*
X140632307Y-68091898D01*
X140917068Y-67919754D01*
X141179002Y-67714542D01*
X141414292Y-67479252D01*
X141619504Y-67217318D01*
X141791648Y-66932557D01*
X141928213Y-66629123D01*
X142027206Y-66311441D01*
X142087186Y-65984142D01*
X142107277Y-65652006D01*
X152452723Y-65652006D01*
X152472813Y-65984143D01*
X152532793Y-66311437D01*
X152532793Y-66311439D01*
X152532794Y-66311441D01*
X152631787Y-66629123D01*
X152768352Y-66932557D01*
X152768356Y-66932565D01*
X152768360Y-66932571D01*
X152940487Y-67217304D01*
X152940491Y-67217310D01*
X152940496Y-67217318D01*
X153145708Y-67479252D01*
X153380998Y-67714542D01*
X153642932Y-67919754D01*
X153927693Y-68091898D01*
X154231127Y-68228463D01*
X154548809Y-68327456D01*
X154767008Y-68367442D01*
X154876107Y-68387436D01*
X154876104Y-68387436D01*
X155125138Y-68402500D01*
X155125144Y-68402500D01*
X155291362Y-68402500D01*
X155540393Y-68387436D01*
X155605851Y-68375440D01*
X155867691Y-68327456D01*
X156185373Y-68228463D01*
X156488807Y-68091898D01*
X156773568Y-67919754D01*
X157035502Y-67714542D01*
X157270792Y-67479252D01*
X157476004Y-67217318D01*
X157648148Y-66932557D01*
X157784713Y-66629123D01*
X157883706Y-66311441D01*
X157943686Y-65984142D01*
X157963777Y-65652000D01*
X157943686Y-65319858D01*
X157883706Y-64992559D01*
X157784713Y-64674877D01*
X157648148Y-64371443D01*
X157476004Y-64086682D01*
X157270792Y-63824748D01*
X157035502Y-63589458D01*
X156773568Y-63384246D01*
X156773560Y-63384241D01*
X156773554Y-63384237D01*
X156488821Y-63212110D01*
X156488815Y-63212106D01*
X156488807Y-63212102D01*
X156412779Y-63177884D01*
X156185374Y-63075537D01*
X155867688Y-62976543D01*
X155540392Y-62916563D01*
X155540395Y-62916563D01*
X155291362Y-62901500D01*
X155291356Y-62901500D01*
X155125144Y-62901500D01*
X155125138Y-62901500D01*
X154876106Y-62916563D01*
X154548812Y-62976543D01*
X154548810Y-62976543D01*
X154231125Y-63075537D01*
X153927699Y-63212099D01*
X153927678Y-63212110D01*
X153642945Y-63384237D01*
X153642926Y-63384250D01*
X153381004Y-63589453D01*
X153381001Y-63589455D01*
X153145705Y-63824751D01*
X153145703Y-63824754D01*
X152940500Y-64086676D01*
X152940487Y-64086695D01*
X152768360Y-64371428D01*
X152768349Y-64371449D01*
X152631787Y-64674875D01*
X152532793Y-64992560D01*
X152532793Y-64992562D01*
X152472813Y-65319856D01*
X152452723Y-65651993D01*
X152452723Y-65652006D01*
X142107277Y-65652006D01*
X142107277Y-65652000D01*
X142087186Y-65319858D01*
X142027206Y-64992559D01*
X141928213Y-64674877D01*
X141791648Y-64371443D01*
X141619504Y-64086682D01*
X141414292Y-63824748D01*
X141179002Y-63589458D01*
X140917068Y-63384246D01*
X140917060Y-63384241D01*
X140917054Y-63384237D01*
X140632321Y-63212110D01*
X140632315Y-63212106D01*
X140632307Y-63212102D01*
X140556279Y-63177884D01*
X140328874Y-63075537D01*
X140011188Y-62976543D01*
X139683892Y-62916563D01*
X139683895Y-62916563D01*
X139434862Y-62901500D01*
X139434856Y-62901500D01*
X139268644Y-62901500D01*
X139268638Y-62901500D01*
X139019606Y-62916563D01*
X138692312Y-62976543D01*
X138692310Y-62976543D01*
X138374625Y-63075537D01*
X138071199Y-63212099D01*
X138071178Y-63212110D01*
X137786445Y-63384237D01*
X137786426Y-63384250D01*
X137524504Y-63589453D01*
X137524501Y-63589455D01*
X137289205Y-63824751D01*
X137289203Y-63824754D01*
X137084000Y-64086676D01*
X137083987Y-64086695D01*
X136911860Y-64371428D01*
X136911849Y-64371449D01*
X136775287Y-64674875D01*
X136676293Y-64992560D01*
X136676293Y-64992562D01*
X136616313Y-65319856D01*
X136596223Y-65651993D01*
X136596223Y-65652006D01*
X123190000Y-65652006D01*
X123190000Y-45459006D01*
X128667973Y-45459006D01*
X128688063Y-45791143D01*
X128748043Y-46118437D01*
X128748043Y-46118439D01*
X128748044Y-46118441D01*
X128847037Y-46436123D01*
X128983602Y-46739557D01*
X128983606Y-46739565D01*
X128983610Y-46739571D01*
X129155737Y-47024304D01*
X129155741Y-47024310D01*
X129155746Y-47024318D01*
X129360958Y-47286252D01*
X129596248Y-47521542D01*
X129858182Y-47726754D01*
X130142943Y-47898898D01*
X130446377Y-48035463D01*
X130764059Y-48134456D01*
X130982258Y-48174442D01*
X131091357Y-48194436D01*
X131091354Y-48194436D01*
X131340388Y-48209500D01*
X131340394Y-48209500D01*
X131506612Y-48209500D01*
X131755643Y-48194436D01*
X131821101Y-48182439D01*
X132082941Y-48134456D01*
X132400623Y-48035463D01*
X132704057Y-47898898D01*
X132988818Y-47726754D01*
X133250752Y-47521542D01*
X133486042Y-47286252D01*
X133691254Y-47024318D01*
X133863398Y-46739557D01*
X133999963Y-46436123D01*
X134098956Y-46118441D01*
X134158936Y-45791142D01*
X134179027Y-45459006D01*
X144524473Y-45459006D01*
X144544563Y-45791143D01*
X144604543Y-46118437D01*
X144604543Y-46118439D01*
X144604544Y-46118441D01*
X144703537Y-46436123D01*
X144840102Y-46739557D01*
X144840106Y-46739565D01*
X144840110Y-46739571D01*
X145012237Y-47024304D01*
X145012241Y-47024310D01*
X145012246Y-47024318D01*
X145217458Y-47286252D01*
X145452748Y-47521542D01*
X145714682Y-47726754D01*
X145999443Y-47898898D01*
X146302877Y-48035463D01*
X146620559Y-48134456D01*
X146838758Y-48174442D01*
X146947857Y-48194436D01*
X146947854Y-48194436D01*
X147196888Y-48209500D01*
X147196894Y-48209500D01*
X147363112Y-48209500D01*
X147612143Y-48194436D01*
X147677601Y-48182439D01*
X147939441Y-48134456D01*
X148257123Y-48035463D01*
X148560557Y-47898898D01*
X148845318Y-47726754D01*
X149107252Y-47521542D01*
X149342542Y-47286252D01*
X149547754Y-47024318D01*
X149719898Y-46739557D01*
X149856463Y-46436123D01*
X149955456Y-46118441D01*
X150015436Y-45791142D01*
X150035527Y-45459006D01*
X160380973Y-45459006D01*
X160401063Y-45791143D01*
X160461043Y-46118437D01*
X160461043Y-46118439D01*
X160461044Y-46118441D01*
X160560037Y-46436123D01*
X160696602Y-46739557D01*
X160696606Y-46739565D01*
X160696610Y-46739571D01*
X160868737Y-47024304D01*
X160868741Y-47024310D01*
X160868746Y-47024318D01*
X161073958Y-47286252D01*
X161309248Y-47521542D01*
X161571182Y-47726754D01*
X161855943Y-47898898D01*
X162159377Y-48035463D01*
X162477059Y-48134456D01*
X162695258Y-48174442D01*
X162804357Y-48194436D01*
X162804354Y-48194436D01*
X163053388Y-48209500D01*
X163053394Y-48209500D01*
X163219612Y-48209500D01*
X163468643Y-48194436D01*
X163534101Y-48182440D01*
X163795941Y-48134456D01*
X164113623Y-48035463D01*
X164417057Y-47898898D01*
X164701818Y-47726754D01*
X164963752Y-47521542D01*
X165199042Y-47286252D01*
X165404254Y-47024318D01*
X165576398Y-46739557D01*
X165712963Y-46436123D01*
X165811956Y-46118441D01*
X165871936Y-45791142D01*
X165892027Y-45459000D01*
X165871936Y-45126858D01*
X165811956Y-44799559D01*
X165712963Y-44481877D01*
X165576398Y-44178443D01*
X165404254Y-43893682D01*
X165199042Y-43631748D01*
X164963752Y-43396458D01*
X164701818Y-43191246D01*
X164701810Y-43191241D01*
X164701804Y-43191237D01*
X164417071Y-43019110D01*
X164417065Y-43019106D01*
X164417057Y-43019102D01*
X164341029Y-42984884D01*
X164113624Y-42882537D01*
X163795938Y-42783543D01*
X163468642Y-42723563D01*
X163468645Y-42723563D01*
X163219612Y-42708500D01*
X163219606Y-42708500D01*
X163053394Y-42708500D01*
X163053388Y-42708500D01*
X162804356Y-42723563D01*
X162477062Y-42783543D01*
X162477060Y-42783543D01*
X162159375Y-42882537D01*
X161855949Y-43019099D01*
X161855928Y-43019110D01*
X161571195Y-43191237D01*
X161571176Y-43191250D01*
X161309254Y-43396453D01*
X161309251Y-43396455D01*
X161073955Y-43631751D01*
X161073953Y-43631754D01*
X160868750Y-43893676D01*
X160868737Y-43893695D01*
X160696610Y-44178428D01*
X160696599Y-44178449D01*
X160560037Y-44481875D01*
X160461043Y-44799560D01*
X160461043Y-44799562D01*
X160401063Y-45126856D01*
X160380973Y-45458993D01*
X160380973Y-45459006D01*
X150035527Y-45459006D01*
X150035527Y-45459000D01*
X150015436Y-45126858D01*
X149955456Y-44799559D01*
X149856463Y-44481877D01*
X149719898Y-44178443D01*
X149547754Y-43893682D01*
X149342542Y-43631748D01*
X149107252Y-43396458D01*
X148845318Y-43191246D01*
X148845310Y-43191241D01*
X148845304Y-43191237D01*
X148560571Y-43019110D01*
X148560565Y-43019106D01*
X148560557Y-43019102D01*
X148484529Y-42984884D01*
X148257124Y-42882537D01*
X147939438Y-42783543D01*
X147612142Y-42723563D01*
X147612145Y-42723563D01*
X147363112Y-42708500D01*
X147363106Y-42708500D01*
X147196894Y-42708500D01*
X147196888Y-42708500D01*
X146947856Y-42723563D01*
X146620562Y-42783543D01*
X146620560Y-42783543D01*
X146302875Y-42882537D01*
X145999449Y-43019099D01*
X145999428Y-43019110D01*
X145714695Y-43191237D01*
X145714676Y-43191250D01*
X145452754Y-43396453D01*
X145452751Y-43396455D01*
X145217455Y-43631751D01*
X145217453Y-43631754D01*
X145012250Y-43893676D01*
X145012237Y-43893695D01*
X144840110Y-44178428D01*
X144840099Y-44178449D01*
X144703537Y-44481875D01*
X144604543Y-44799560D01*
X144604543Y-44799562D01*
X144544563Y-45126856D01*
X144524473Y-45458993D01*
X144524473Y-45459006D01*
X134179027Y-45459006D01*
X134179027Y-45459000D01*
X134158936Y-45126858D01*
X134098956Y-44799559D01*
X133999963Y-44481877D01*
X133863398Y-44178443D01*
X133691254Y-43893682D01*
X133486042Y-43631748D01*
X133250752Y-43396458D01*
X132988818Y-43191246D01*
X132988810Y-43191241D01*
X132988804Y-43191237D01*
X132704071Y-43019110D01*
X132704065Y-43019106D01*
X132704057Y-43019102D01*
X132628029Y-42984884D01*
X132400624Y-42882537D01*
X132082938Y-42783543D01*
X131755642Y-42723563D01*
X131755645Y-42723563D01*
X131506612Y-42708500D01*
X131506606Y-42708500D01*
X131340394Y-42708500D01*
X131340388Y-42708500D01*
X131091356Y-42723563D01*
X130764062Y-42783543D01*
X130764060Y-42783543D01*
X130446375Y-42882537D01*
X130142949Y-43019099D01*
X130142928Y-43019110D01*
X129858195Y-43191237D01*
X129858176Y-43191250D01*
X129596254Y-43396453D01*
X129596251Y-43396455D01*
X129360955Y-43631751D01*
X129360953Y-43631754D01*
X129155750Y-43893676D01*
X129155737Y-43893695D01*
X128983610Y-44178428D01*
X128983599Y-44178449D01*
X128847037Y-44481875D01*
X128748043Y-44799560D01*
X128748043Y-44799562D01*
X128688063Y-45126856D01*
X128667973Y-45458993D01*
X128667973Y-45459006D01*
X123190000Y-45459006D01*
X123190000Y-28039000D01*
X123208907Y-27980809D01*
X123258407Y-27944845D01*
X123289000Y-27940000D01*
X128293387Y-27940000D01*
X128351578Y-27958907D01*
G37*
%TD.AperFunction*%
%TD*%
M02*
